<svg width="24" height="25" viewBox="0 0 24 25" fill="none" xmlns="http://www.w3.org/2000/svg">
<g clip-path="url(#clip0_1244_2524)">
<path d="M23.0001 24.3759H1.0001C0.555098 24.3759 0.163097 24.0819 0.0400975 23.6539C-0.0839026 23.2269 0.0900975 22.7689 0.466098 22.5309C0.670098 22.4019 5.5331 20.3759 12.0001 20.3759C18.4671 20.3759 23.3301 22.4019 23.5341 22.5309C23.9101 22.7689 24.0841 23.2269 23.9601 23.6539C23.8361 24.0819 23.4451 24.3759 23.0001 24.3759ZM11.9971 0.377932C11.9971 0.377932 7.9341 0.230932 4.7381 2.48593C2.9371 3.75693 1.7961 5.51993 1.1431 6.81593C0.755098 7.58693 1.3771 8.50193 2.1931 8.36193C3.5771 8.12393 5.5641 7.57293 7.3721 6.29693C10.5681 4.04193 11.9971 0.377932 11.9971 0.377932ZM12.0261 0.377932C12.0261 0.377932 13.4561 4.04293 16.6511 6.29693C18.4601 7.57293 20.4461 8.12393 21.8301 8.36193C22.6461 8.50193 23.2681 7.58693 22.8801 6.81593C22.2271 5.51993 21.0861 3.75693 19.2851 2.48593C16.0911 0.230932 12.0271 0.377932 12.0271 0.377932M8.5251 7.93193C8.0251 8.28493 7.5151 8.58593 7.0061 8.84993C6.9691 9.95993 7.1751 11.0559 7.4001 11.7249C7.5961 12.3069 8.3611 12.5589 8.9381 12.2319C10.0851 11.5819 11.8471 10.0289 12.5921 8.23893C13.3011 6.53593 12.9491 4.72193 12.5681 3.56493C11.6991 4.93893 10.3731 6.62793 8.5251 7.93193ZM16.2301 8.40693C15.9851 8.25793 15.7411 8.10193 15.5001 7.93193C15.2841 7.77993 15.0791 7.61993 14.8771 7.45793C14.7891 7.97093 14.6551 8.48993 14.4391 9.00793C14.1641 9.66893 13.7791 10.2969 13.3431 10.8849C13.2041 13.6579 12.3631 16.3859 11.5711 18.3859C11.7151 18.3839 11.8551 18.3779 12.0011 18.3779C13.6351 18.3779 15.1741 18.5029 16.5841 18.6949C16.9781 16.3409 17.2991 12.8419 16.5391 9.61393C16.4401 9.19193 16.3351 8.79793 16.2301 8.40693Z" fill="#F30000"/>
</g>
<defs>
<clipPath id="clip0_1244_2524">
<rect width="24" height="24" fill="white" transform="translate(0 0.375977)"/>
</clipPath>
</defs>
</svg>
