<svg width="24" height="24" viewBox="0 0 24 24" fill="none" xmlns="http://www.w3.org/2000/svg">
<g clip-path="url(#clip0_1244_2528)">
<path d="M14.869 12.888L23.042 5.33702C25.118 3.55402 23.521 -0.110976 20.842 2.40954e-05H3.15598C2.67167 0.00492401 2.19493 0.120771 1.76237 0.338665C1.32981 0.556559 0.952957 0.870703 0.66075 1.25696C0.368543 1.64323 0.168761 2.09133 0.0767514 2.56684C-0.0152586 3.04236 0.00295161 3.53264 0.129983 4.00002H17C17.2652 4.00002 17.5196 4.10538 17.7071 4.29292C17.8946 4.48045 18 4.73481 18 5.00002C18 5.26524 17.8946 5.51959 17.7071 5.70713C17.5196 5.89467 17.2652 6.00002 17 6.00002H1.67498L9.13698 12.894C9.66596 13.3709 10.3067 13.7066 11 13.87V22H6.99998C6.73477 22 6.48041 22.1054 6.29288 22.2929C6.10534 22.4805 5.99998 22.7348 5.99998 23C5.99998 23.2652 6.10534 23.5196 6.29288 23.7071C6.48041 23.8947 6.73477 24 6.99998 24H17C17.2652 24 17.5196 23.8947 17.7071 23.7071C17.8946 23.5196 18 23.2652 18 23C18 22.7348 17.8946 22.4805 17.7071 22.2929C17.5196 22.1054 17.2652 22 17 22H13V13.869C13.6955 13.7043 14.3383 13.3669 14.869 12.888Z" fill="#F30000"/>
</g>
<defs>
<clipPath id="clip0_1244_2528">
<rect width="24" height="24" fill="white"/>
</clipPath>
</defs>
</svg>
