<svg width="25" height="25" viewBox="0 0 25 25" fill="none" xmlns="http://www.w3.org/2000/svg">
<g clip-path="url(#clip0_1244_2520)">
<path d="M12.376 16.376C11.5849 16.376 10.8115 16.1414 10.1537 15.7019C9.4959 15.2623 8.98321 14.6376 8.68046 13.9067C8.37771 13.1758 8.29849 12.3715 8.45284 11.5956C8.60718 10.8197 8.98814 10.107 9.54755 9.54755C10.107 8.98814 10.8197 8.60718 11.5956 8.45284C12.3715 8.2985 13.1758 8.37771 13.9067 8.68046C14.6376 8.98321 15.2623 9.4959 15.7019 10.1537C16.1414 10.8115 16.376 11.5849 16.376 12.376C16.376 13.4368 15.9545 14.4543 15.2044 15.2044C14.4543 15.9546 13.4368 16.376 12.376 16.376ZM6.05898 16.376H1.37598C1.11076 16.376 0.856406 16.2706 0.66887 16.0831C0.481333 15.8955 0.375977 15.6412 0.375977 15.376C0.385452 13.9401 0.907701 12.5548 1.84853 11.4701C2.78936 10.3853 4.08685 9.6724 5.50698 9.45998C5.672 9.43686 5.84018 9.45534 5.99624 9.51375C6.1523 9.57216 6.2913 9.66864 6.40059 9.79442C6.50988 9.92021 6.58601 10.0713 6.62205 10.234C6.65809 10.3967 6.65291 10.5658 6.60698 10.726C6.45373 11.2626 6.37599 11.8179 6.37598 12.376C6.37626 13.2657 6.57653 14.144 6.96198 14.946C7.03447 15.0982 7.06731 15.2663 7.05743 15.4346C7.04755 15.6029 6.99529 15.766 6.90548 15.9086C6.81568 16.0513 6.69126 16.169 6.54378 16.2507C6.39631 16.3324 6.23057 16.3755 6.06198 16.376H6.05898ZM17.376 24.376H7.37598C7.11076 24.376 6.85641 24.2706 6.66887 24.0831C6.48133 23.8955 6.37598 23.6412 6.37598 23.376C6.37598 21.7847 7.00812 20.2586 8.13334 19.1333C9.25855 18.0081 10.7847 17.376 12.376 17.376C13.9673 17.376 15.4934 18.0081 16.6186 19.1333C17.7438 20.2586 18.376 21.7847 18.376 23.376C18.376 23.6412 18.2706 23.8955 18.0831 24.0831C17.8955 24.2706 17.6412 24.376 17.376 24.376ZM18.376 8.37598C17.5849 8.37598 16.8115 8.14138 16.1537 7.70186C15.4959 7.26233 14.9832 6.63762 14.6805 5.90671C14.3777 5.17581 14.2985 4.37154 14.4528 3.59562C14.6072 2.81969 14.9881 2.10696 15.5475 1.54755C16.107 0.988141 16.8197 0.607178 17.5956 0.452837C18.3715 0.298496 19.1758 0.37771 19.9067 0.68046C20.6376 0.983211 21.2623 1.4959 21.7019 2.1537C22.1414 2.81149 22.376 3.58485 22.376 4.37598C22.376 5.43684 21.9545 6.45426 21.2044 7.20441C20.4543 7.95455 19.4368 8.37598 18.376 8.37598ZM6.37598 8.37598C5.58485 8.37598 4.81149 8.14138 4.1537 7.70186C3.4959 7.26233 2.98321 6.63762 2.68046 5.90671C2.37771 5.17581 2.29849 4.37154 2.45284 3.59562C2.60718 2.81969 2.98814 2.10696 3.54755 1.54755C4.10696 0.988141 4.81969 0.607178 5.59562 0.452837C6.37154 0.298496 7.17581 0.37771 7.90671 0.68046C8.63761 0.983211 9.26233 1.4959 9.70185 2.1537C10.1414 2.81149 10.376 3.58485 10.376 4.37598C10.376 5.43684 9.95455 6.45426 9.2044 7.20441C8.45426 7.95455 7.43684 8.37598 6.37598 8.37598ZM23.376 16.376H18.693C18.5244 16.3755 18.3586 16.3324 18.2112 16.2507C18.0637 16.169 17.9393 16.0513 17.8495 15.9086C17.7597 15.766 17.7074 15.6029 17.6975 15.4346C17.6876 15.2663 17.7205 15.0982 17.793 14.946C18.1774 14.1438 18.3766 13.2655 18.376 12.376C18.3743 11.8177 18.2949 11.2623 18.14 10.726C18.0938 10.5653 18.0886 10.3957 18.1248 10.2325C18.1611 10.0694 18.2377 9.91791 18.3476 9.79198C18.4575 9.66606 18.5973 9.56969 18.754 9.51169C18.9108 9.4537 19.0796 9.43592 19.245 9.45998C20.6651 9.6724 21.9626 10.3853 22.9034 11.4701C23.8443 12.5548 24.3665 13.9401 24.376 15.376C24.376 15.6412 24.2706 15.8955 24.0831 16.0831C23.8955 16.2706 23.6412 16.376 23.376 16.376Z" fill="#F30000"/>
</g>
<defs>
<clipPath id="clip0_1244_2520">
<rect width="24" height="24" fill="white" transform="translate(0.375977 0.375977)"/>
</clipPath>
</defs>
</svg>
