<svg width="44" height="40" viewBox="0 0 44 40" fill="none" xmlns="http://www.w3.org/2000/svg">
<path d="M22.7675 34.9532C30.0405 29.0921 35.9825 33.5311 37.3282 26.4997C38.6739 19.4683 39.3284 23.0003 42.3284 20" stroke="#F30000" stroke-opacity="0.5" stroke-width="2" stroke-linecap="round" stroke-dasharray="4 4"/>
<path d="M20.3278 19.1668C19.2227 19.1668 18.1629 18.7278 17.3815 17.9464C16.6001 17.165 16.1611 16.1052 16.1611 15.0002C16.1611 13.8951 16.6001 12.8353 17.3815 12.0539C18.1629 11.2725 19.2227 10.8335 20.3278 10.8335C21.4329 10.8335 22.4927 11.2725 23.2741 12.0539C24.0555 12.8353 24.4945 13.8951 24.4945 15.0002C24.4945 15.5473 24.3867 16.0892 24.1773 16.5947C23.9679 17.1002 23.661 17.5595 23.2741 17.9464C22.8872 18.3334 22.4278 18.6403 21.9223 18.8497C21.4168 19.0591 20.875 19.1668 20.3278 19.1668ZM20.3278 3.3335C17.2336 3.3335 14.2661 4.56266 12.0782 6.75058C9.8903 8.93851 8.66113 11.906 8.66113 15.0002C8.66113 23.7502 20.3278 36.6668 20.3278 36.6668C20.3278 36.6668 31.9945 23.7502 31.9945 15.0002C31.9945 11.906 30.7653 8.93851 28.5774 6.75058C26.3895 4.56266 23.422 3.3335 20.3278 3.3335Z" fill="#F30000"/>
</svg>
